<svg width="120" height="60" viewBox="0 0 120 60" fill="none" xmlns="http://www.w3.org/2000/svg">
<path d="M14.2143 39V37.104H18.1743V23.976H19.3023L14.5743 26.904V24.72L18.7983 22.08H20.4063V37.104H24.1263V39H14.2143ZM27.6689 39V37.344L33.5729 31.152C34.3409 30.368 34.9089 29.616 35.2769 28.896C35.6609 28.176 35.8529 27.432 35.8529 26.664C35.8529 25.72 35.5569 25.008 34.9649 24.528C34.3889 24.032 33.5409 23.784 32.4209 23.784C31.5569 23.784 30.7409 23.944 29.9729 24.264C29.2209 24.568 28.5009 25.04 27.8129 25.68L27.0209 23.976C27.6769 23.336 28.5009 22.824 29.4929 22.44C30.5009 22.056 31.5569 21.864 32.6609 21.864C34.3889 21.864 35.7249 22.264 36.6689 23.064C37.6129 23.848 38.0849 24.976 38.0849 26.448C38.0849 27.52 37.8209 28.544 37.2929 29.52C36.7809 30.48 36.0209 31.472 35.0129 32.496L29.8529 37.728V37.104H38.7809V39H27.6689ZM47.2195 39.216C45.2835 39.216 43.7955 38.472 42.7555 36.984C41.7155 35.48 41.1955 33.328 41.1955 30.528C41.1955 27.68 41.7155 25.528 42.7555 24.072C43.7955 22.6 45.2835 21.864 47.2195 21.864C49.1715 21.864 50.6595 22.6 51.6835 24.072C52.7235 25.528 53.2435 27.672 53.2435 30.504C53.2435 33.32 52.7235 35.48 51.6835 36.984C50.6435 38.472 49.1555 39.216 47.2195 39.216ZM47.2195 37.32C48.4995 37.32 49.4515 36.768 50.0755 35.664C50.7155 34.56 51.0355 32.84 51.0355 30.504C51.0355 28.168 50.7155 26.464 50.0755 25.392C49.4515 24.304 48.4995 23.76 47.2195 23.76C45.9555 23.76 45.0035 24.304 44.3635 25.392C43.7235 26.464 43.4035 28.168 43.4035 30.504C43.4035 32.84 43.7235 34.56 44.3635 35.664C45.0035 36.768 45.9555 37.32 47.2195 37.32ZM60.8823 39L66.3543 32.232V33.312L61.1943 26.928H63.8103L67.5783 31.752H66.7863L70.5543 26.928H73.1463L68.0583 33.264V32.28L73.4583 39H70.8183L66.7863 33.84H67.5783L63.4983 39H60.8823ZM87.7325 39.216C85.6685 39.216 84.0765 38.488 82.9565 37.032C81.8365 35.576 81.2765 33.544 81.2765 30.936C81.2765 28.984 81.5565 27.336 82.1165 25.992C82.6925 24.648 83.5085 23.624 84.5645 22.92C85.6205 22.216 86.8845 21.864 88.3565 21.864C89.2525 21.864 90.1485 22.04 91.0445 22.392C91.9405 22.744 92.6845 23.232 93.2765 23.856L92.4605 25.584C91.8685 24.976 91.2125 24.528 90.4925 24.24C89.7885 23.936 89.0685 23.784 88.3325 23.784C86.7485 23.784 85.5325 24.352 84.6845 25.488C83.8525 26.608 83.4365 28.28 83.4365 30.504V32.64H83.1965C83.3085 31.744 83.5805 30.976 84.0125 30.336C84.4605 29.696 85.0285 29.2 85.7165 28.848C86.4205 28.496 87.2125 28.32 88.0925 28.32C89.1005 28.32 89.9965 28.552 90.7805 29.016C91.5645 29.48 92.1805 30.112 92.6285 30.912C93.0765 31.712 93.3005 32.64 93.3005 33.696C93.3005 34.752 93.0605 35.704 92.5805 36.552C92.1005 37.384 91.4445 38.04 90.6125 38.52C89.7805 38.984 88.8205 39.216 87.7325 39.216ZM87.6125 37.368C88.3165 37.368 88.9325 37.216 89.4605 36.912C90.0045 36.608 90.4205 36.184 90.7085 35.64C91.0125 35.096 91.1645 34.472 91.1645 33.768C91.1645 33.064 91.0125 32.44 90.7085 31.896C90.4205 31.352 90.0045 30.928 89.4605 30.624C88.9325 30.32 88.3165 30.168 87.6125 30.168C86.9085 30.168 86.2845 30.32 85.7405 30.624C85.2125 30.928 84.7965 31.352 84.4925 31.896C84.1885 32.44 84.0365 33.064 84.0365 33.768C84.0365 34.472 84.1885 35.096 84.4925 35.64C84.7965 36.184 85.2125 36.608 85.7405 36.912C86.2845 37.216 86.9085 37.368 87.6125 37.368ZM101.571 39.216C99.6351 39.216 98.1471 38.472 97.1071 36.984C96.0671 35.48 95.5471 33.328 95.5471 30.528C95.5471 27.68 96.0671 25.528 97.1071 24.072C98.1471 22.6 99.6351 21.864 101.571 21.864C103.523 21.864 105.011 22.6 106.035 24.072C107.075 25.528 107.595 27.672 107.595 30.504C107.595 33.32 107.075 35.48 106.035 36.984C104.995 38.472 103.507 39.216 101.571 39.216ZM101.571 37.32C102.851 37.32 103.803 36.768 104.427 35.664C105.067 34.56 105.387 32.84 105.387 30.504C105.387 28.168 105.067 26.464 104.427 25.392C103.803 24.304 102.851 23.76 101.571 23.76C100.307 23.76 99.3551 24.304 98.7151 25.392C98.0751 26.464 97.7551 28.168 97.7551 30.504C97.7551 32.84 98.0751 34.56 98.7151 35.664C99.3551 36.768 100.307 37.32 101.571 37.32Z" fill="white"/>
</svg>
