<svg width="26" height="26" viewBox="0 0 26 26" fill="none" xmlns="http://www.w3.org/2000/svg">
<path d="M21 5.00002C18.8884 2.88839 16.1116 2.88839 14 5.00002L11 7.00002C10.6005 7.39954 10.3995 7.39954 10 7.00002C9.60048 6.6005 9.60048 5.39954 10 5.00002L12 3.00002C14.9106 0.08935 20.0894 0.089349 23 3.00002C25.9106 5.91069 25.9106 11.0893 23 14L21 16C20.6005 16.3995 19.3995 16.3995 19 16C18.6005 15.6005 18.6005 15.3995 19 15L21 12C23.1116 9.88839 23.1116 7.11165 21 5.00002Z" fill="#92C589"/>
<path d="M17 9.00002C17.3995 9.39954 17.3995 10.6005 17 11L11 17C10.6005 17.3995 9.39952 17.3995 9 17C8.60048 16.6005 8.60048 15.3995 9 15L15 9.00002C15.3995 8.6005 16.6005 8.6005 17 9.00002Z" fill="#92C589"/>
<path d="M12 21C9.88839 23.1116 7.11161 23.1117 5 21C2.88839 18.8884 2.88839 16.1117 5 14L7 11C7.39952 10.6005 7.39952 10.3995 7 10C6.60048 9.6005 5.39952 9.6005 5 10L3 12C0.0893552 14.9107 0.0893555 20.0893 3 23C5.91064 25.9107 11.0894 25.9107 14 23L16 21C16.3995 20.6005 16.3995 19.3995 16 19C15.6005 18.6005 15.3995 18.6005 15 19L12 21Z" fill="#92C589"/>
</svg>
