<svg width="23" height="23" viewBox="0 0 23 23" fill="none" xmlns="http://www.w3.org/2000/svg">
<path d="M2.65251 6.69692L3.08013 7.31306H3.08013L2.65251 6.69692ZM9.04124 2.263L8.61361 1.64685V1.64685L9.04124 2.263ZM13.9588 2.263L14.3864 1.64685V1.64685L13.9588 2.263ZM20.3475 6.69691L19.9199 7.31306L20.3475 6.69691ZM2.31969 10.7448L1.80191 11.2874L1.80191 11.2874L2.31969 10.7448ZM20.6803 10.7448L20.1625 10.2022V10.2022L20.6803 10.7448ZM15.6804 20.75H7.31965V22.25H15.6804V20.75ZM3.08013 7.31306L9.46886 2.87914L8.61361 1.64685L2.22488 6.08077L3.08013 7.31306ZM13.5311 2.87914L19.9199 7.31306L20.7751 6.08077L14.3864 1.64685L13.5311 2.87914ZM19.1107 12.633V17.5108H20.6107V12.633H19.1107ZM3.8893 17.5108V12.633H2.3893V17.5108H3.8893ZM3.8893 12.633C3.8893 11.7143 3.50651 10.8407 2.83747 10.2022L1.80191 11.2874C2.18244 11.6505 2.3893 12.1354 2.3893 12.633H3.8893ZM20.1625 10.2022C19.4935 10.8407 19.1107 11.7143 19.1107 12.633H20.6107C20.6107 12.1354 20.8176 11.6505 21.1981 11.2874L20.1625 10.2022ZM9.46886 2.87914C10.6775 2.04029 12.3224 2.04029 13.5311 2.87914L14.3864 1.64685C12.6634 0.451051 10.3366 0.451051 8.61361 1.64685L9.46886 2.87914ZM7.31965 20.75C5.39166 20.75 3.8893 19.2671 3.8893 17.5108H2.3893C2.3893 20.1609 4.63015 22.25 7.31965 22.25V20.75ZM15.6804 22.25C18.3698 22.25 20.6107 20.1609 20.6107 17.5108H19.1107C19.1107 19.2671 17.6083 20.75 15.6804 20.75V22.25ZM19.9199 7.31306C20.9262 8.01149 21.03 9.37443 20.1625 10.2022L21.1981 11.2874C22.7624 9.79458 22.55 7.3126 20.7751 6.08077L19.9199 7.31306ZM2.22488 6.08077C0.449956 7.3126 0.237579 9.79458 1.80191 11.2874L2.83747 10.2022C1.97003 9.37443 2.07378 8.01149 3.08013 7.31306L2.22488 6.08077ZM12.75 15.5C12.75 16.1904 12.1904 16.75 11.5 16.75V18.25C13.0188 18.25 14.25 17.0188 14.25 15.5H12.75ZM11.5 16.75C10.8096 16.75 10.25 16.1904 10.25 15.5H8.75C8.75 17.0188 9.98122 18.25 11.5 18.25V16.75ZM10.25 15.5C10.25 14.8096 10.8096 14.25 11.5 14.25V12.75C9.98122 12.75 8.75 13.9812 8.75 15.5H10.25ZM11.5 14.25C12.1904 14.25 12.75 14.8096 12.75 15.5H14.25C14.25 13.9812 13.0188 12.75 11.5 12.75V14.25Z" fill="white"/>
</svg>
