<svg width="21" height="23" viewBox="0 0 21 23" fill="none" xmlns="http://www.w3.org/2000/svg">
<path d="M6.5 8.75C6.08579 8.75 5.75 9.08579 5.75 9.5C5.75 9.91421 6.08579 10.25 6.5 10.25V8.75ZM14.5 10.25C14.9142 10.25 15.25 9.91421 15.25 9.5C15.25 9.08579 14.9142 8.75 14.5 8.75V10.25ZM6.5 12.75C6.08579 12.75 5.75 13.0858 5.75 13.5C5.75 13.9142 6.08579 14.25 6.5 14.25V12.75ZM14.5 14.25C14.9142 14.25 15.25 13.9142 15.25 13.5C15.25 13.0858 14.9142 12.75 14.5 12.75V14.25ZM6.5 16.75C6.08579 16.75 5.75 17.0858 5.75 17.5C5.75 17.9142 6.08579 18.25 6.5 18.25V16.75ZM10.5 18.25C10.9142 18.25 11.25 17.9142 11.25 17.5C11.25 17.0858 10.9142 16.75 10.5 16.75V18.25ZM6.5 10.25H14.5V8.75H6.5V10.25ZM6.5 14.25H14.5V12.75H6.5V14.25ZM6.5 18.25H10.5V16.75H6.5V18.25ZM8.5 2.25H12.5V0.75H8.5V2.25ZM12.5 4.75H8.5V6.25H12.5V4.75ZM8.5 4.75C7.80964 4.75 7.25 4.19036 7.25 3.5H5.75C5.75 5.01878 6.98122 6.25 8.5 6.25V4.75ZM13.75 3.5C13.75 4.19036 13.1904 4.75 12.5 4.75V6.25C14.0188 6.25 15.25 5.01878 15.25 3.5H13.75ZM12.5 2.25C13.1904 2.25 13.75 2.80964 13.75 3.5H15.25C15.25 1.98122 14.0188 0.75 12.5 0.75V2.25ZM8.5 0.75C6.98122 0.75 5.75 1.98122 5.75 3.5H7.25C7.25 2.80964 7.80964 2.25 8.5 2.25V0.75ZM18.75 7.5V17.5H20.25V7.5H18.75ZM15.5 20.75H5.5V22.25H15.5V20.75ZM2.25 17.5V7.5H0.75V17.5H2.25ZM15.5 2.75H14.5V4.25H15.5V2.75ZM5.5 4.25H6.5V2.75H5.5V4.25ZM2.25 7.5C2.25 5.70507 3.70507 4.25 5.5 4.25V2.75C2.87665 2.75 0.75 4.87665 0.75 7.5H2.25ZM5.5 20.75C3.70507 20.75 2.25 19.2949 2.25 17.5H0.75C0.75 20.1234 2.87665 22.25 5.5 22.25V20.75ZM18.75 17.5C18.75 19.2949 17.2949 20.75 15.5 20.75V22.25C18.1234 22.25 20.25 20.1234 20.25 17.5H18.75ZM20.25 7.5C20.25 4.87665 18.1234 2.75 15.5 2.75V4.25C17.2949 4.25 18.75 5.70507 18.75 7.5H20.25Z" fill="white"/>
</svg>
