<svg width="16" height="13" viewBox="0 0 16 13" fill="none" xmlns="http://www.w3.org/2000/svg">
<path fill-rule="evenodd" clip-rule="evenodd" d="M7.78336 3.4582L7.81587 4.02049L7.27395 3.95164C5.30138 3.68771 3.57808 2.79264 2.11491 1.28938L1.39958 0.543493L1.21533 1.0943C0.82515 2.32216 1.07443 3.61886 1.88731 4.49098C2.32084 4.97294 2.22329 5.04179 1.47545 4.75491C1.21533 4.6631 0.987725 4.59425 0.966048 4.62868C0.89018 4.709 1.1503 5.75325 1.35623 6.16636C1.63802 6.74012 2.21246 7.30241 2.84108 7.63519L3.37216 7.89912L2.74353 7.9106C2.13659 7.9106 2.11491 7.92207 2.17994 8.16305C2.39671 8.90894 3.25294 9.70073 4.20671 10.045L4.87868 10.286L4.29341 10.6532C3.42635 11.181 2.40755 11.4794 1.38874 11.5023C0.901018 11.5138 0.5 11.5597 0.5 11.5941C0.5 11.7089 1.82228 12.3515 2.5918 12.604C4.90036 13.3499 7.64246 13.0286 9.70174 11.7548C11.1649 10.8483 12.6281 9.04665 13.3109 7.30241C13.6794 6.37291 14.0479 4.67458 14.0479 3.85984C14.0479 3.33198 14.0804 3.26312 14.6874 2.63199C15.045 2.26478 15.381 1.86315 15.4461 1.74839C15.5544 1.53036 15.5436 1.53036 14.9908 1.72544C14.0696 2.0697 13.9395 2.0238 14.3947 1.50741C14.7307 1.14021 15.1317 0.474642 15.1317 0.279563C15.1317 0.245137 14.9692 0.302513 14.7849 0.40579C14.5898 0.520543 14.1563 0.692671 13.8311 0.795948L13.2459 0.991027L12.7148 0.612345C12.4222 0.40579 12.0103 0.176285 11.7935 0.107434C11.2408 -0.0532193 10.3954 -0.0302688 9.89683 0.153335C8.54204 0.669721 7.68581 2.00085 7.78336 3.4582Z" fill="#C8C8C8"/>
</svg>
