<?xml version="1.0" ?><svg width="80px" height="80px" viewBox="0 0 80 80" data-name="Layer 1" id="Layer_1" xmlns="http://www.w3.org/2000/svg"><defs><style>.cls-1{fill:none;stroke:#fff;stroke-linecap:round;stroke-linejoin:round;stroke-width:4px;}</style></defs><title/><g id="xrp_change"><path class="cls-1" d="M11,32V25A14,14,0,0,1,25,11h7"/><polyline class="cls-1" points="26 5 32 11 26 17"/><path class="cls-1" d="M69,48v7A14,14,0,0,1,55,69H48"/><polyline class="cls-1" points="54 75 48 69 54 63"/><path class="cls-1" d="M31.384,25.113a20,20,0,1,1,23.5,23.5"/><circle class="cls-1" cx="29" cy="51" r="20"/><g id="xrp_logo"><path d="M29,50.007a8.021,8.021,0,0,1-5.859-2.554l-5.99-6.444A.6.6,0,0,1,17.59,40H20.8a2,2,0,0,1,1.465.638l3.715,4a4.152,4.152,0,0,0,2.529,1.343A3.979,3.979,0,0,0,31.93,44.73l3.8-4.092A2,2,0,0,1,37.2,40H40.41a.6.6,0,0,1,.439,1.008l-5.99,6.445A8.022,8.022,0,0,1,29,50.007Z"/><path d="M29,51.993a8.021,8.021,0,0,0-5.859,2.554l-5.99,6.444A.6.6,0,0,0,17.59,62H20.8a2,2,0,0,0,1.465-.638l3.715-4a4.152,4.152,0,0,1,2.529-1.343A3.979,3.979,0,0,1,31.93,57.27l3.8,4.092A2,2,0,0,0,37.2,62H40.41a.6.6,0,0,0,.439-1.008l-5.99-6.445A8.022,8.022,0,0,0,29,51.993Z"/></g></g></svg>