<svg width="291" height="403" viewBox="0 0 291 403" fill="none" xmlns="http://www.w3.org/2000/svg">
<path opacity="0.25" d="M-297.916 0.277344L-297.916 481.723M-224.426 0.277344L-224.426 481.723M-150.937 0.277344L-150.937 481.723M-77.4474 0.277344L-77.4474 481.723M-3.95794 0.277344L-3.95796 481.723M69.5315 0.277344L69.5315 481.723M143.021 0.277344L143.021 481.723M216.51 0.277344L216.51 481.723M290 0.277344L290 481.723M-298.116 468.262H289.8M-298.116 392.518L289.8 392.518M-298.116 316.774L289.8 316.774M-298.116 241.031L289.8 241.031M-298.116 165.287L289.8 165.287M-298.116 89.5434L289.8 89.5434M-298.116 13.7998L289.8 13.7998" stroke="url(#paint0_radial_20_461)" stroke-width="0.758182"/>
<defs>
<radialGradient id="paint0_radial_20_461" cx="0" cy="0" r="1" gradientUnits="userSpaceOnUse" gradientTransform="translate(-4.05792 241) rotate(90) scale(240.723 294.058)">
<stop stop-color="#53C351"/>
<stop offset="1" stop-color="#53C351" stop-opacity="0"/>
</radialGradient>
</defs>
</svg>
