<svg width="268" height="384" viewBox="0 0 268 384" fill="none" xmlns="http://www.w3.org/2000/svg">
<path opacity="0.25" d="M1.21883 0.873779L1.21881 383.126M59.5671 0.873779L59.5671 383.126M117.915 0.873779L117.915 383.126M176.264 0.873779L176.264 383.126M234.612 0.873779L234.612 383.126M292.96 0.873779L292.96 383.126M351.308 0.873779L351.308 383.126M409.657 0.873779L409.657 383.126M468.005 0.873779L468.005 383.126M1.06006 372.438H467.846M1.06006 312.3L467.846 312.3M1.06006 252.162L467.846 252.162M1.06006 192.024L467.846 192.024M1.06006 131.886L467.846 131.886M1.06006 71.7482L467.846 71.7482M1.06006 11.6102L467.846 11.6102" stroke="url(#paint0_radial_20_580)" stroke-width="0.601972"/>
<defs>
<radialGradient id="paint0_radial_20_580" cx="0" cy="0" r="1" gradientUnits="userSpaceOnUse" gradientTransform="translate(234.533 192) rotate(90) scale(191.126 233.472)">
<stop stop-color="#53C351"/>
<stop offset="1" stop-color="#53C351" stop-opacity="0"/>
</radialGradient>
</defs>
</svg>
