<svg width="654" height="901" viewBox="0 0 654 901" fill="none" xmlns="http://www.w3.org/2000/svg">
<path opacity="0.25" d="M-446.057 0.0895996L-446.057 900.11M-308.675 0.0895996L-308.675 900.11M-171.292 0.0895996L-171.292 900.11M-33.9104 0.0895996L-33.9104 900.11M103.472 0.0895996L103.472 900.11M240.854 0.0895996L240.854 900.11M378.236 0.0895996L378.236 900.11M515.618 0.0895996L515.618 900.11M653 0.0895996L653 900.11M-446.43 874.945H652.626M-446.43 733.349L652.626 733.349M-446.43 591.753L652.626 591.753M-446.43 450.157L652.626 450.157M-446.43 308.561L652.626 308.561M-446.43 166.965L652.626 166.965M-446.43 25.3686L652.626 25.3686" stroke="url(#paint0_radial_4_63)"/>
<defs>
<radialGradient id="paint0_radial_4_63" cx="0" cy="0" r="1" gradientUnits="userSpaceOnUse" gradientTransform="translate(103.285 450.1) rotate(90) scale(450.01 549.715)">
<stop stop-color="#53C351"/>
<stop offset="1" stop-color="#53C351" stop-opacity="0"/>
</radialGradient>
</defs>
</svg>
