<svg width="65" height="64" viewBox="0 0 65 64" fill="none" xmlns="http://www.w3.org/2000/svg">
<path d="M32.76 64C50.4331 64 64.76 49.6731 64.76 32C64.76 14.3269 50.4331 0 32.76 0C15.0869 0 0.76001 14.3269 0.76001 32C0.76001 49.6731 15.0869 64 32.76 64Z" fill="url(#paint0_linear_114_118)"/>
<path opacity="0.2" d="M61.73 32.27L51.71 56.8L46.41 44.28L51.24 32.47H48.63L44.69 42.29L40.79 32.47H38.22L43.05 44.28L37.79 56.8L27.73 32.27L22.68 20.37L27.88 7.85001L37.9 32.38H40.86L29.13 4.70001H26.71L20.9 18.28L15.05 4.70001H12.67L0.969971 32.38H3.89997L13.96 7.85001L19.22 20.37L14.39 32.19H16.96L20.86 22.36L24.8 32.27L36.5 59.96H38.88L44.73 46.27L50.54 59.96H52.96L64.69 32.27H61.73V32.27Z" fill="white"/>
<path d="M35.0999 44.5C34.3331 44.6807 33.5478 44.7713 32.7599 44.77C27.1799 44.77 22.4299 40.52 22.0899 34.21C22.171 33.0051 22.3618 31.8102 22.6599 30.64L13.9999 27C13.0966 29.4665 12.6362 32.0733 12.6399 34.7C12.6399 45.52 21.9099 54.29 32.7299 54.29C35.2223 54.2816 37.69 53.7962 39.9999 52.86L35.0999 44.5Z" fill="url(#paint1_linear_114_118)"/>
<path d="M32.76 14C29.9475 13.996 27.1674 14.5998 24.61 15.77L29.47 24.03C30.5285 23.6654 31.6404 23.4796 32.76 23.48C37.7 23.48 42.94 27.62 43.44 32.72L29.39 32.78L51.3 42.1C52.394 39.4668 52.9122 36.63 52.82 33.78C52.82 23 43.58 14 32.76 14Z" fill="url(#paint2_linear_114_118)"/>
<path d="M35.0999 42.36C34.3331 42.5407 33.5478 42.6313 32.7599 42.63C27.1799 42.63 22.4299 38.38 22.0899 32.07C22.171 30.8651 22.3618 29.6702 22.6599 28.5L13.9999 24.82C13.0966 27.2865 12.6362 29.8933 12.6399 32.52C12.6399 43.34 21.9099 52.11 32.7299 52.11C35.2197 52.1143 37.6873 51.6425 39.9999 50.72L35.0999 42.36ZM32.7599 11.89C29.9475 11.886 27.1673 12.4898 24.6099 13.66L29.4699 21.92C30.5285 21.5554 31.6403 21.3695 32.7599 21.37C37.6999 21.37 42.9399 25.51 43.4399 30.61L29.3899 30.67L51.2999 40C52.3939 37.3667 52.9121 34.53 52.8199 31.68C52.8199 20.82 43.5799 11.89 32.7599 11.89V11.89Z" fill="white"/>
<defs>
<linearGradient id="paint0_linear_114_118" x1="53.55" y1="1.4" x2="-4.66999" y2="87.08" gradientUnits="userSpaceOnUse">
<stop stop-color="#1ABC9C"/>
<stop offset="1" stop-color="#1A5DAF"/>
</linearGradient>
<linearGradient id="paint1_linear_114_118" x1="1017.3" y1="118.694" x2="772.836" y2="1755.46" gradientUnits="userSpaceOnUse">
<stop stop-color="#1ABC9C"/>
<stop offset="1" stop-color="#1A5DAF"/>
</linearGradient>
<linearGradient id="paint2_linear_114_118" x1="1331.78" y1="148.88" x2="1080.19" y2="1834.35" gradientUnits="userSpaceOnUse">
<stop stop-color="#1ABC9C"/>
<stop offset="1" stop-color="#1A5DAF"/>
</linearGradient>
</defs>
</svg>
